<!--?xml version="1.0" standalone="no"?-->
              <svg id="sw-js-blob-svg" viewBox="0 0 100 100" xmlns="http://www.w3.org/2000/svg" version="1.1">
                    <defs> 
                        <linearGradient id="sw-gradient" x1="0" x2="1" y1="1" y2="0">
                            <stop id="stop1" stop-color="rgba(248, 117, 55, 1)" offset="0%"></stop>
                            <stop id="stop2" stop-color="rgba(251, 168, 31, 1)" offset="100%"></stop>
                        </linearGradient>
                    </defs>
                <path fill="url(#sw-gradient)" d="M20.4,-28.5C26.1,-23.8,30.4,-17.5,33,-10.5C35.7,-3.4,36.8,4.4,35.6,12.6C34.3,20.7,30.9,29.2,24.5,34.4C18.2,39.5,9.1,41.3,0.5,40.6C-8,39.9,-16.1,36.6,-24,31.9C-31.9,27.3,-39.6,21.3,-43.2,13.3C-46.8,5.3,-46.4,-4.8,-43.1,-13.8C-39.9,-22.8,-33.9,-30.6,-26.3,-34.7C-18.6,-38.7,-9.3,-38.9,-1,-37.5C7.3,-36.2,14.6,-33.1,20.4,-28.5Z" width="100%" height="100%" transform="translate(50 50)" stroke-width="0" style="transition: all 0.3s ease 0s;"></path>
              </svg>