<!--?xml version="1.0" standalone="no"?-->
              <svg id="sw-js-blob-svg" viewBox="0 0 100 100" xmlns="http://www.w3.org/2000/svg" version="1.1">
                    <defs> 
                        <linearGradient id="sw-gradient" x1="0" x2="1" y1="1" y2="0">
                            <stop id="stop1" stop-color="rgba(248, 117, 55, 1)" offset="0%"></stop>
                            <stop id="stop2" stop-color="rgba(251, 168, 31, 1)" offset="100%"></stop>
                        </linearGradient>
                    </defs>
                <path fill="url(#sw-gradient)" d="M14.8,-19C20.9,-15.9,28.8,-13.9,34.2,-8.4C39.7,-3,42.7,6,40.2,12.8C37.6,19.6,29.3,24.3,21.7,26.5C14.1,28.7,7,28.3,-0.5,28.9C-8,29.6,-16,31.3,-22.4,28.7C-28.8,26.2,-33.6,19.3,-35.3,12C-36.9,4.7,-35.4,-3.2,-31.9,-9.3C-28.4,-15.3,-22.9,-19.7,-17.3,-22.8C-11.6,-26,-5.8,-28.1,-0.7,-27.1C4.3,-26.1,8.7,-22,14.8,-19Z" width="100%" height="100%" transform="translate(50 50)" stroke-width="0" style="transition: all 0.3s ease 0s;"></path>
              </svg>